<svg width="34" height="35" viewBox="0 0 34 35" fill="none" xmlns="http://www.w3.org/2000/svg">
<path fill-rule="evenodd" clip-rule="evenodd" d="M26.5014 8.07899C27.0547 8.63224 27.0547 9.52922 26.5014 10.0825L9.50141 27.0825C8.94817 27.6357 8.05118 27.6357 7.49794 27.0825C6.9447 26.5292 6.9447 25.6322 7.49794 25.079L24.4979 8.07899C25.0512 7.52575 25.9482 7.52575 26.5014 8.07899Z" fill="#FF1515"/>
<path fill-rule="evenodd" clip-rule="evenodd" d="M7.49794 8.07899C8.05118 7.52575 8.94817 7.52575 9.50141 8.07899L26.5014 25.079C27.0547 25.6322 27.0547 26.5292 26.5014 27.0825C25.9482 27.6357 25.0512 27.6357 24.4979 27.0825L7.49794 10.0825C6.9447 9.52922 6.9447 8.63224 7.49794 8.07899Z" fill="#FF1515"/>
<path fill-rule="evenodd" clip-rule="evenodd" d="M26.5014 8.07899C27.0547 8.63224 27.0547 9.52922 26.5014 10.0825L9.50141 27.0825C8.94817 27.6357 8.05118 27.6357 7.49794 27.0825C6.9447 26.5292 6.9447 25.6322 7.49794 25.079L24.4979 8.07899C25.0512 7.52575 25.9482 7.52575 26.5014 8.07899Z" stroke="#FF1515" stroke-width="2.83333" stroke-linecap="round" stroke-linejoin="round"/>
<path fill-rule="evenodd" clip-rule="evenodd" d="M7.49794 8.07899C8.05118 7.52575 8.94817 7.52575 9.50141 8.07899L26.5014 25.079C27.0547 25.6322 27.0547 26.5292 26.5014 27.0825C25.9482 27.6357 25.0512 27.6357 24.4979 27.0825L7.49794 10.0825C6.9447 9.52922 6.9447 8.63224 7.49794 8.07899Z" stroke="#FF1515" stroke-width="2.83333" stroke-linecap="round" stroke-linejoin="round"/>
</svg>
