<svg width="24" height="24" viewBox="0 0 24 24" fill="none" xmlns="http://www.w3.org/2000/svg">
<path d="M8.99876 14.9676C9.62042 14.9676 10.1244 14.4636 10.1244 13.842C10.1244 13.2203 9.62042 12.7163 8.99876 12.7163C8.3771 12.7163 7.87315 13.2203 7.87315 13.842C7.87315 14.4636 8.3771 14.9676 8.99876 14.9676Z" fill="#171717"/>
<path d="M15.002 14.9676C15.6237 14.9676 16.1276 14.4636 16.1276 13.842C16.1276 13.2203 15.6237 12.7163 15.002 12.7163C14.3804 12.7163 13.8764 13.2203 13.8764 13.842C13.8764 14.4636 14.3804 14.9676 15.002 14.9676Z" fill="#171717"/>
<path d="M23.1871 16.263L20.0082 5.64846C19.8806 5.20759 19.5504 4.84834 19.1236 4.68325C18.1894 4.30054 17.2166 3.9985 16.2317 3.78557C15.4804 3.62048 14.7272 4.0454 14.4767 4.77986L13.9308 6.43263C13.2911 6.3651 12.6467 6.33226 12.0004 6.33789C11.3541 6.33226 10.7097 6.36416 10.07 6.43263L9.52123 4.7733C9.2736 4.0454 8.51944 3.62048 7.76997 3.78463C6.78412 3.9985 5.81047 4.30054 4.87621 4.68325C4.44848 4.84834 4.11924 5.20759 3.99167 5.64846L0.812762 16.263C0.64392 16.8258 0.820266 17.4402 1.26394 17.8322C2.80884 19.1764 4.89779 20.1988 7.30565 20.7888C7.4276 20.8198 7.54954 20.8348 7.67054 20.8348C8.22772 20.8348 8.75394 20.5178 9.00533 19.9981L9.89737 18.229C10.5934 18.3097 11.295 18.3491 11.9994 18.3444C12.0407 18.3444 12.0811 18.3444 12.1214 18.3444C12.7846 18.3444 13.4459 18.3059 14.1015 18.23L14.9926 19.9981C15.244 20.5178 15.7702 20.8348 16.3274 20.8348C16.4484 20.8348 16.5713 20.8198 16.6923 20.7888C19.0992 20.1988 21.1882 19.1764 22.7378 17.8285C23.1786 17.4402 23.354 16.8248 23.1852 16.263H23.1871ZM16.3387 19.3312V19.3293L15.6558 17.9767C16.1933 17.8632 16.7261 17.7244 17.2523 17.5593C17.6481 17.4355 17.8676 17.0143 17.7438 16.6185C17.62 16.2226 17.1988 16.0022 16.803 16.1269C16.0282 16.3699 15.2375 16.5519 14.4383 16.671C14.4251 16.6729 14.412 16.6738 14.3989 16.6766C13.6081 16.7929 12.808 16.8492 12.0051 16.8426H11.9938C11.1881 16.8483 10.3861 16.792 9.59346 16.6747C9.58877 16.6747 9.58314 16.6738 9.57845 16.6729C8.7727 16.5537 7.97727 16.3708 7.19591 16.126C6.80007 16.0022 6.3789 16.2217 6.25508 16.6175C6.13127 17.0134 6.3517 17.4345 6.7466 17.5583C7.27282 17.7234 7.80561 17.8623 8.34309 17.9758L7.66116 19.3284V19.3302C5.48498 18.7965 3.61365 17.8866 2.2526 16.7029C2.24979 16.7001 2.24885 16.6963 2.24979 16.6926L5.42964 6.079C5.42964 6.079 5.43527 6.07713 5.43808 6.07619C6.29354 5.72537 7.18559 5.44772 8.09077 5.25168H8.09358C8.09733 5.25168 8.10015 5.25356 8.10015 5.25168L8.56634 6.66151C7.95382 6.78251 7.34786 6.93634 6.75035 7.12394C6.35451 7.24776 6.13502 7.66893 6.25884 8.06477C6.38265 8.4606 6.80382 8.6801 7.19966 8.55628C7.98571 8.30959 8.78677 8.12667 9.59815 8.00755C9.64036 8.00473 9.68163 8.00004 9.72384 7.98973C10.4752 7.88467 11.235 7.83495 11.9976 7.84058H12.0088C12.7714 7.83495 13.5303 7.88467 14.2807 7.98973C14.3248 8.00004 14.3698 8.00567 14.4139 8.00849C15.2224 8.12855 16.0216 8.31146 16.8067 8.55722C16.8818 8.58067 16.9568 8.59193 17.0309 8.59193C17.3498 8.59193 17.6463 8.3865 17.7466 8.0657C17.8704 7.66986 17.65 7.2487 17.2551 7.12488C16.6567 6.93728 16.0507 6.78345 15.4382 6.66338L15.9025 5.26012C15.9025 5.26012 15.9091 5.25262 15.9147 5.25449C16.818 5.45054 17.71 5.72725 18.5655 6.07806C18.5683 6.079 18.5711 6.07994 18.573 6.08088L21.7519 16.6954L21.7529 16.7019C20.3881 17.8895 18.5167 18.7993 16.3405 19.3331L16.3387 19.3312Z" fill="#171717"/>
</svg>
