<svg width="24" height="24" viewBox="0 0 24 24" fill="none" xmlns="http://www.w3.org/2000/svg">
<path d="M8.99913 14.9676C9.62078 14.9676 10.1247 14.4636 10.1247 13.842C10.1247 13.2203 9.62078 12.7163 8.99913 12.7163C8.37747 12.7163 7.87352 13.2203 7.87352 13.842C7.87352 14.4636 8.37747 14.9676 8.99913 14.9676Z" fill="#FF570A"/>
<path d="M15.0024 14.9676C15.624 14.9676 16.128 14.4636 16.128 13.842C16.128 13.2203 15.624 12.7163 15.0024 12.7163C14.3807 12.7163 13.8768 13.2203 13.8768 13.842C13.8768 14.4636 14.3807 14.9676 15.0024 14.9676Z" fill="#FF570A"/>
<path d="M23.1874 16.263L20.0085 5.64846C19.881 5.20759 19.5508 4.84834 19.124 4.68325C18.1897 4.30054 17.217 3.9985 16.2321 3.78557C15.4808 3.62048 14.7275 4.0454 14.4771 4.77986L13.9312 6.43263C13.2915 6.3651 12.647 6.33226 12.0008 6.33789C11.3545 6.33226 10.7101 6.36416 10.0703 6.43263L9.5216 4.7733C9.27396 4.0454 8.5198 3.62048 7.77033 3.78463C6.78449 3.9985 5.81084 4.30054 4.87658 4.68325C4.44885 4.84834 4.11961 5.20759 3.99204 5.64846L0.813128 16.263C0.644286 16.8258 0.820632 17.4402 1.26431 17.8322C2.80921 19.1764 4.89815 20.1988 7.30602 20.7888C7.42796 20.8198 7.5499 20.8348 7.67091 20.8348C8.22808 20.8348 8.7543 20.5178 9.00569 19.9981L9.89774 18.229C10.5937 18.3097 11.2954 18.3491 11.9998 18.3444C12.0411 18.3444 12.0814 18.3444 12.1218 18.3444C12.7849 18.3444 13.4462 18.3059 14.1019 18.23L14.993 19.9981C15.2444 20.5178 15.7706 20.8348 16.3278 20.8348C16.4488 20.8348 16.5717 20.8198 16.6927 20.7888C19.0996 20.1988 21.1885 19.1764 22.7381 17.8285C23.179 17.4402 23.3544 16.8248 23.1856 16.263H23.1874ZM16.339 19.3312V19.3293L15.6562 17.9767C16.1936 17.8632 16.7264 17.7244 17.2527 17.5593C17.6485 17.4355 17.868 17.0143 17.7442 16.6185C17.6204 16.2226 17.1992 16.0022 16.8034 16.1269C16.0286 16.3699 15.2378 16.5519 14.4386 16.671C14.4255 16.6729 14.4124 16.6738 14.3992 16.6766C13.6085 16.7929 12.8084 16.8492 12.0054 16.8426H11.9942C11.1884 16.8483 10.3864 16.792 9.59382 16.6747C9.58913 16.6747 9.5835 16.6738 9.57881 16.6729C8.77307 16.5537 7.97763 16.3708 7.19627 16.126C6.80043 16.0022 6.37927 16.2217 6.25545 16.6175C6.13163 17.0134 6.35207 17.4345 6.74697 17.5583C7.27319 17.7234 7.80598 17.8623 8.34346 17.9758L7.66153 19.3284V19.3302C5.48535 18.7965 3.61402 17.8866 2.25297 16.7029C2.25016 16.7001 2.24922 16.6963 2.25016 16.6926L5.43 6.079C5.43 6.079 5.43563 6.07713 5.43845 6.07619C6.29391 5.72537 7.18596 5.44772 8.09113 5.25168H8.09395C8.0977 5.25168 8.10051 5.25356 8.10051 5.25168L8.5667 6.66151C7.95418 6.78251 7.34823 6.93634 6.75072 7.12394C6.35488 7.24776 6.13539 7.66893 6.2592 8.06477C6.38302 8.4606 6.80419 8.6801 7.20003 8.55628C7.98608 8.30959 8.78714 8.12667 9.59851 8.00755C9.64072 8.00473 9.68199 8.00004 9.72421 7.98973C10.4755 7.88467 11.2353 7.83495 11.9979 7.84058H12.0092C12.7718 7.83495 13.5306 7.88467 14.281 7.98973C14.3251 8.00004 14.3702 8.00567 14.4142 8.00849C15.2228 8.12855 16.022 8.31146 16.8071 8.55722C16.8821 8.58067 16.9572 8.59193 17.0313 8.59193C17.3502 8.59193 17.6466 8.3865 17.747 8.0657C17.8708 7.66986 17.6504 7.2487 17.2555 7.12488C16.657 6.93728 16.0511 6.78345 15.4386 6.66338L15.9029 5.26012C15.9029 5.26012 15.9094 5.25262 15.9151 5.25449C16.8184 5.45054 17.7104 5.72725 18.5659 6.07806C18.5687 6.079 18.5715 6.07994 18.5734 6.08088L21.7523 16.6954L21.7532 16.7019C20.3884 17.8895 18.5171 18.7993 16.3409 19.3331L16.339 19.3312Z" fill="#FF570A"/>
</svg>
