<svg width="32" height="32" viewBox="0 0 32 32" fill="none" xmlns="http://www.w3.org/2000/svg">
<path d="M16.0001 10L17.0593 5.23372C17.213 4.54193 17.881 4.09127 18.58 4.20777L25.3334 5.33333M16.0001 10C12.5312 10 9.58867 10.9813 7.5719 12.5502C7.09657 11.8178 6.27157 11.3333 5.33341 11.3333C3.86066 11.3333 2.66675 12.5272 2.66675 14C2.66675 15.2985 3.5949 16.3803 4.82399 16.6181C4.72029 17.067 4.66675 18.1954 4.66675 18.6667C4.66675 23.0849 9.37266 26.6667 16.0001 26.6667C22.6275 26.6667 27.3334 23.0849 27.3334 18.6667C27.3334 18.1954 27.2799 17.067 27.1762 16.6181C28.4053 16.3803 29.3334 15.2985 29.3334 14C29.3334 12.5272 28.1395 11.3333 26.6667 11.3333C25.7286 11.3333 24.9036 11.8178 24.4283 12.5502C22.4115 10.9813 19.469 10 16.0001 10Z" stroke="#171717" stroke-width="2"/>
<circle cx="11.3333" cy="16.6667" r="2" fill="#171717"/>
<circle cx="20.6667" cy="16.6667" r="2" fill="#171717"/>
<path d="M27.9772 5.33341C27.9772 6.80617 26.7833 8.00008 25.3105 8.00008C23.8377 8.00008 22.6438 6.80617 22.6438 5.33341C22.6438 3.86066 23.8377 2.66675 25.3105 2.66675C26.7833 2.66675 27.9772 3.86066 27.9772 5.33341Z" fill="#171717"/>
<path d="M11.2363 21.3333C12.4693 22.1671 14.095 22.6666 16.0001 22.6666C17.9053 22.6666 19.5309 22.1671 20.7639 21.3333" stroke="#171717" stroke-width="2" stroke-linecap="round"/>
</svg>
